<?xml version="1.0" standalone="no"?>
<!DOCTYPE svg PUBLIC "-//W3C//DTD SVG 20010904//EN"
 "http://www.w3.org/TR/2001/REC-SVG-20010904/DTD/svg10.dtd">
<svg version="1.0" xmlns="http://www.w3.org/2000/svg"
 width="1024.000000pt" height="1536.000000pt" viewBox="0 0 1024.000000 1536.000000"
 preserveAspectRatio="xMidYMid meet">

<g transform="translate(0.000000,1536.000000) scale(0.100000,-0.100000)"
fill="#000000" stroke="none">
<path d="M0 7680 l0 -7680 5120 0 5120 0 0 7680 0 7680 -5120 0 -5120 0 0
-7680z m4956 3610 c44 -10 115 -33 157 -49 99 -40 399 -190 496 -249 119 -72
368 -192 399 -192 37 0 111 -39 134 -70 29 -41 57 -134 78 -258 27 -169 88
-652 94 -755 10 -151 44 -170 53 -31 3 44 0 119 -6 168 -6 49 -9 91 -7 93 4 4
463 -188 1336 -559 337 -144 423 -181 429 -184 8 -7 -75 -94 -90 -94 -9 0 -60
17 -112 38 l-96 39 -67 -68 c-59 -59 -65 -69 -48 -75 63 -22 199 -76 203 -80
7 -7 -111 -124 -125 -124 -6 0 -58 20 -115 46 l-104 45 -68 -72 c-37 -40 -65
-75 -62 -78 4 -3 52 -24 107 -46 56 -22 103 -45 105 -50 1 -6 -26 -41 -60 -79
l-63 -70 -50 23 c-27 13 -78 37 -112 52 l-64 29 -59 -63 c-32 -34 -59 -65 -59
-70 0 -4 47 -30 105 -58 58 -28 105 -53 105 -56 0 -6 -34 -48 -86 -105 l-33
-37 -103 60 c-56 32 -107 59 -113 59 -6 0 -39 -33 -75 -74 -36 -41 -68 -75
-72 -75 -7 -1 -195 115 -212 130 -5 4 20 39 54 79 38 42 60 74 54 79 -5 5 -60
37 -122 71 l-112 62 -66 -58 c-36 -33 -71 -63 -77 -67 -8 -5 -50 13 -112 48
-55 31 -102 59 -104 61 -3 3 24 34 59 69 35 35 62 66 59 69 -2 2 -57 32 -122
66 l-118 62 -55 -43 c-102 -81 -83 -79 -195 -24 -54 27 -99 53 -99 57 0 7 65
70 110 106 l24 20 -113 56 c-128 64 -114 65 -210 -12 l-43 -35 -100 49 c-55
27 -102 52 -104 56 -2 3 25 28 61 54 l66 48 -112 53 -111 53 -71 -49 -71 -49
-98 49 c-54 27 -96 54 -93 59 3 5 33 28 65 51 33 23 60 45 60 48 0 3 -46 27
-102 54 l-102 48 -73 -46 c-41 -25 -78 -45 -83 -45 -10 0 -152 70 -179 89 -11
7 3 20 58 56 39 27 71 49 71 51 0 1 -43 23 -96 48 l-95 46 -78 -40 -79 -39
-96 46 c-53 26 -96 49 -96 53 0 3 35 23 77 44 l78 38 -93 44 -94 43 -65 -29
c-36 -17 -73 -30 -81 -30 -9 0 -46 14 -84 32 -55 25 -66 34 -56 43 11 10 411
224 1023 546 l110 58 155 -63 c85 -35 236 -98 335 -140 99 -43 208 -89 242
-103 60 -25 62 -28 92 -95 25 -57 36 -71 65 -83 20 -8 49 -15 66 -15 17 0 40
-5 50 -10 23 -12 84 -192 101 -299 7 -39 18 -79 25 -89 11 -15 14 -14 24 13
18 46 5 145 -40 300 -23 77 -43 141 -44 143 -2 1 -30 7 -62 12 -93 15 -111 26
-130 79 -9 25 -28 77 -43 114 l-26 68 -85 26 c-80 24 -89 30 -155 99 l-70 72
-80 4 c-76 3 -84 6 -180 61 -88 51 -106 57 -155 57 -47 0 -67 7 -133 44 -73
42 -82 44 -170 48 -108 4 -156 23 -192 76 -103 151 -8 366 188 427 64 21 218
18 313 -5z m-1133 -1588 c4 -19 15 -31 38 -39 18 -7 31 -14 28 -16 -2 -3 -83
-41 -179 -86 -215 -101 -571 -287 -785 -411 -553 -320 -984 -630 -1370 -984
-58 -54 -93 -60 -124 -20 -12 15 -21 41 -21 58 0 27 13 43 99 119 359 318 861
661 1434 979 209 116 834 428 858 428 10 0 19 -11 22 -28z m256 -155 c5 -13
26 -32 46 -41 l37 -18 -228 -120 c-878 -458 -1471 -859 -1957 -1324 -54 -52
-104 -94 -110 -94 -31 0 -75 39 -80 72 -7 46 5 61 140 182 484 431 1022 792
1763 1182 200 105 357 182 373 183 4 1 12 -10 16 -22z m321 -162 c0 -8 11 -22
25 -32 l25 -18 -158 -89 c-474 -270 -899 -543 -1202 -774 -220 -168 -360 -291
-568 -498 -200 -198 -204 -202 -235 -193 -43 12 -49 21 -54 76 l-5 48 149 145
c404 397 889 744 1593 1142 157 89 224 126 385 214 22 12 45 1 45 -21z m320
-166 c3 -13 16 -28 28 -34 12 -5 22 -12 22 -15 -1 -3 -89 -59 -197 -125 -417
-256 -814 -535 -1068 -753 -246 -210 -538 -501 -652 -649 -50 -65 -78 -77
-123 -53 -19 10 -40 59 -40 94 0 45 304 364 539 565 241 207 500 398 826 609
268 173 635 394 649 389 6 -2 13 -14 16 -28z m372 -206 c12 -12 20 -24 17 -26
-2 -2 -69 -46 -149 -97 -526 -337 -894 -633 -1251 -1006 -121 -126 -283 -321
-349 -419 -54 -79 -70 -88 -119 -62 -24 12 -49 63 -50 103 -2 58 330 427 604
673 319 286 592 485 1035 758 194 120 216 131 227 115 7 -9 22 -27 35 -39z
m366 -167 c2 -15 10 -30 18 -33 8 -3 14 -9 14 -13 0 -4 -73 -59 -162 -121
-285 -198 -405 -290 -588 -448 -334 -290 -658 -672 -825 -973 -53 -96 -66
-103 -125 -73 -28 15 -52 65 -52 109 0 47 145 255 321 460 233 273 508 528
791 738 207 153 575 391 595 385 5 -2 11 -16 13 -31z m402 -221 c0 -14 9 -26
25 -33 14 -6 25 -15 25 -20 0 -4 -33 -31 -74 -60 -242 -167 -595 -497 -752
-702 -224 -291 -404 -605 -483 -843 -20 -58 -26 -67 -46 -67 -42 0 -93 31
-111 68 -34 72 -31 102 23 214 82 172 259 451 388 613 233 293 508 546 871
800 83 58 110 72 121 64 7 -6 13 -21 13 -34z m500 -271 c0 -13 8 -28 18 -33 9
-6 22 -14 29 -18 8 -6 -28 -49 -110 -134 -131 -134 -237 -256 -334 -384 -217
-287 -341 -587 -438 -1058 -18 -87 -36 -161 -39 -164 -3 -3 -36 3 -73 13 -58
17 -72 26 -101 64 -32 42 -34 47 -28 102 11 98 64 294 117 437 154 412 401
753 799 1102 138 121 160 131 160 73z m-2684 -2275 c152 -28 257 -126 277
-261 l6 -37 -105 -3 -105 -3 -18 40 c-31 69 -81 95 -180 95 -78 0 -122 -24
-140 -75 -12 -36 -12 -45 3 -77 21 -44 67 -66 222 -104 263 -64 354 -155 342
-339 -12 -184 -156 -295 -388 -297 -162 -2 -278 39 -356 125 -43 48 -74 121
-74 174 0 23 2 23 109 23 l109 0 7 -29 c6 -29 44 -70 82 -90 11 -6 52 -14 90
-17 156 -14 243 55 200 158 -19 46 -79 74 -246 117 -134 34 -209 66 -255 109
-101 95 -90 305 21 403 92 80 250 115 399 88z m-776 -109 l0 -100 -225 0 -225
0 0 -105 0 -105 195 0 195 0 0 -95 0 -95 -195 0 -195 0 0 -120 0 -120 230 0
230 0 0 -100 0 -100 -345 0 -345 0 0 520 0 520 340 0 340 0 0 -100z m2110 0
l0 -100 -155 0 -155 0 0 -420 0 -420 -110 0 -110 0 0 420 0 420 -154 0 -155 0
-3 100 -3 100 423 0 422 0 0 -100z m920 0 l0 -100 -220 0 -220 0 0 -105 0
-105 195 0 195 0 0 -95 0 -95 -195 0 -195 0 0 -120 0 -120 230 0 230 0 0 -100
0 -100 -345 0 -345 0 0 520 0 520 335 0 335 0 0 -100z m819 90 c115 -22 220
-100 263 -194 32 -72 32 -209 0 -281 -31 -68 -93 -128 -166 -161 -56 -26 -73
-28 -213 -32 l-153 -4 0 -179 0 -179 -115 0 -115 0 0 520 0 520 224 0 c123 0
247 -4 275 -10z m1011 -127 c29 -76 115 -298 191 -495 76 -196 141 -368 145
-382 l6 -27 -118 3 -119 3 -39 108 -39 107 -206 0 -207 0 -39 -110 -39 -110
-113 0 c-65 0 -113 4 -113 10 0 14 268 722 365 963 l27 67 122 0 123 0 53
-137z m-2975 -1337 c98 -45 157 -134 163 -249 11 -182 -115 -318 -295 -318
-116 -1 -174 22 -241 94 -59 65 -75 107 -76 202 -1 122 43 204 140 261 83 49
215 53 309 10z m2921 19 c74 -23 124 -74 124 -127 0 -28 -1 -28 -60 -28 -44 0
-60 4 -60 13 0 21 -32 46 -68 53 -63 13 -112 -16 -112 -66 0 -38 23 -52 128
-80 135 -36 186 -84 186 -173 -1 -108 -67 -169 -192 -176 -85 -4 -142 10 -191
46 -34 26 -61 76 -61 113 0 18 6 20 58 20 53 0 58 -2 74 -30 41 -72 188 -66
188 8 0 49 -22 64 -124 92 -128 34 -168 63 -187 134 -38 142 126 253 297 201z
m-4891 -14 c37 -15 82 -57 101 -93 8 -15 14 -53 14 -85 0 -72 -30 -130 -81
-157 l-36 -19 64 -100 c34 -55 63 -104 63 -108 0 -4 -31 -7 -69 -8 l-69 -1
-64 103 c-57 91 -67 102 -95 105 l-32 3 -3 -103 -3 -103 -62 -3 -63 -3 0 297
0 296 153 -4 c84 -3 165 -10 182 -17z m741 -38 l1 -53 -134 0 -134 0 3 -62 3
-63 118 -3 117 -3 0 -49 0 -50 -120 0 -121 0 3 -67 3 -68 133 -3 132 -3 0 -54
0 -55 -195 0 -195 0 0 295 0 295 193 -2 192 -3 1 -52z m602 0 l3 -53 -125 0
-126 0 0 -70 0 -70 110 0 110 0 0 -50 0 -50 -110 0 -110 0 0 -120 0 -121 -62
3 -63 3 -3 280 c-1 154 0 286 3 293 3 10 46 12 187 10 l183 -3 3 -52z m1359
28 c113 -57 136 -221 43 -305 -20 -18 -43 -35 -50 -38 -8 -2 10 -37 49 -99 34
-52 61 -100 61 -106 0 -7 -26 -10 -67 -9 l-68 1 -62 100 c-59 94 -65 100 -95
100 l-33 0 -3 -102 -3 -103 -59 0 -60 0 0 296 0 297 153 -5 c131 -4 158 -8
194 -27z m556 -133 c51 -86 95 -157 99 -158 3 0 48 72 100 160 l93 160 68 0
67 0 0 -295 0 -296 -62 3 -63 3 -5 184 -5 184 -75 -129 -75 -129 -45 -3 -45
-3 -55 97 c-30 53 -64 113 -75 133 l-20 36 -3 -187 -2 -188 -65 0 -65 0 0 295
0 296 71 -3 71 -3 91 -157z m1071 -122 c58 -156 106 -289 106 -295 0 -8 -20
-11 -62 -9 l-63 3 -21 60 -21 60 -115 3 -114 3 -23 -66 -23 -65 -64 0 c-35 0
-64 2 -64 5 0 4 176 474 209 558 10 26 14 27 79 27 l69 0 107 -284z"/>
<path d="M4658 11236 c-70 -19 -114 -54 -147 -116 -32 -61 -46 -110 -32 -110
5 0 27 31 50 70 48 80 84 111 161 135 94 30 99 34 55 34 -22 0 -61 -6 -87 -13z"/>
<path d="M4620 10237 c-33 -25 -50 -62 -50 -110 0 -77 -8 -72 420 -257 74 -32
277 -119 450 -194 173 -76 497 -215 720 -310 1029 -441 1006 -432 1070 -406
63 26 107 140 71 184 -20 24 -29 20 -40 -20 -13 -46 -48 -84 -77 -84 -44 0
-383 136 -1134 455 -449 191 -965 410 -1160 492 -124 53 -235 105 -247 116
-25 23 -29 57 -12 106 13 37 10 44 -11 28z"/>
<path d="M6480 5725 l0 -158 113 5 c165 6 210 39 210 153 0 114 -46 147 -210
153 l-113 4 0 -157z"/>
<path d="M7570 5775 c-39 -103 -120 -329 -120 -336 0 -5 61 -9 135 -9 74 0
135 2 135 5 0 9 -120 337 -129 354 -8 13 -11 11 -21 -14z"/>
<path d="M4540 4488 c-56 -38 -72 -69 -77 -145 -4 -57 -1 -75 19 -112 36 -70
65 -86 158 -86 64 0 84 4 107 21 103 77 97 277 -11 328 -53 25 -155 22 -196
-6z"/>
<path d="M2610 4425 l0 -85 66 0 c63 0 101 11 116 34 4 6 8 30 8 53 0 61 -31
83 -121 83 l-69 0 0 -85z"/>
<path d="M5290 4425 l0 -85 75 0 c67 0 79 3 100 25 17 16 25 35 25 60 0 25 -8
44 -25 60 -21 22 -33 25 -100 25 l-75 0 0 -85z"/>
<path d="M6928 4363 l-35 -98 70 -3 c38 -2 71 -1 73 1 5 5 -55 179 -65 190 -5
4 -24 -36 -43 -90z"/>
</g>
</svg>
